# xmcd
#
# Track frame offsets:
# 150
# 49267
# 85383
# 141320
# 157104
# 175826
# 194613
# 229969
#
# Disc length: 3216 seconds
#
# Revision: 1
# Processed by: cddbd v1.4PL0 Copyright (c) Steve Scherf et al.
# Submitted via: CedeCatalogueitor 2.5 http://usuarios.lycos.es/kakasboy
#
DISCID=740c8e08
DTITLE=Jimi Hendrix - Live In New York '68
DYEAR=1968
DGENRE=Blues
TTITLE0=red house
TTITLE1=Wake Up This Mornig And Yoo Find Youself Dead
TTITLE2=Bleeding Heart
TTITLE3=Morrison's Lament
TTITLE4=Tomorrow Never Knows
TTITLE5=Uranus Rock
TTITLE6=Outside Woman Blues
TTITLE7=Sunshine Of Your Love
EXTD=
EXTT0=
EXTT1=
EXTT2=
EXTT3=
EXTT4=
EXTT5=
EXTT6=
EXTT7=
PLAYORDER=
